<svg width="131" height="45" viewBox="0 0 131 45" fill="none" xmlns="http://www.w3.org/2000/svg">
<path fill-rule="evenodd" clip-rule="evenodd" d="M69.8331 10.716H86.9756L90.0683 0H56.7823L53.6753 10.7455H69.8245L69.8331 10.716ZM101.496 0.104521H123.343C126.538 0.104521 131.963 2.66754 130.853 6.74343L130.415 8.34819H110.921C109.919 8.34819 108.878 9.15196 108.607 10.1338L102.548 32.0959C102.278 33.078 102.875 33.8813 103.877 33.8813H123.46L122.04 39.0928C121.218 42.1121 117.977 44.5957 114.783 44.5957H91.7201C87.6552 44.5957 85.158 41.4447 86.1711 37.5949L94.6769 5.27474C95.4251 2.4308 98.494 0.104521 101.496 0.104521ZM26.8029 0.548006H10.0751L0.245728 37.172C-0.8172 41.1331 1.6684 44.3725 5.76904 44.3725H31.4327C34.8833 44.3725 38.4382 41.6458 39.3328 38.3145L49.4682 0.547646L34.6349 0.548006L25.8569 30.0921C25.2415 32.1647 23.0239 33.8741 20.8696 33.8741C18.716 33.8741 17.4088 32.1647 18.0249 30.0921L26.8029 0.548006ZM68.0739 16.6863V16.6859H51.9247L44.0282 44.3725H60.1774L64.9476 26.9158H82.1313L85.2516 16.6863H68.0739Z" fill="white"/>
</svg>
